<?xml version="1.0" encoding="UTF-8" standalone="no"?>
<svg
   xmlns:dc="http://purl.org/dc/elements/1.1/"
   xmlns:cc="http://creativecommons.org/ns#"
   xmlns:rdf="http://www.w3.org/1999/02/22-rdf-syntax-ns#"
   xmlns:svg="http://www.w3.org/2000/svg"
   xmlns="http://www.w3.org/2000/svg"
   xmlns:sodipodi="http://sodipodi.sourceforge.net/DTD/sodipodi-0.dtd"
   xmlns:inkscape="http://www.inkscape.org/namespaces/inkscape"
   version="1.1"
   id="svg2"
   xml:space="preserve"
   width="608.74664"
   height="222.75999"
   viewBox="0 0 608.74664 222.75999"
   sodipodi:docname="ANVISS_LOGO_COLOR.eps"><metadata
     id="metadata8"><rdf:RDF><cc:Work
         rdf:about=""><dc:format>image/svg+xml</dc:format><dc:type
           rdf:resource="http://purl.org/dc/dcmitype/StillImage" /></cc:Work></rdf:RDF></metadata><defs
     id="defs6" /><sodipodi:namedview
     pagecolor="#ffffff"
     bordercolor="#666666"
     borderopacity="1"
     objecttolerance="10"
     gridtolerance="10"
     guidetolerance="10"
     inkscape:pageopacity="0"
     inkscape:pageshadow="2"
     inkscape:window-width="640"
     inkscape:window-height="480"
     id="namedview4" /><g
     id="g10"
     inkscape:groupmode="layer"
     inkscape:label="ink_ext_XXXXXX"
     transform="matrix(1.3333333,0,0,-1.3333333,0,222.76)"><g
       id="g12"
       transform="scale(0.1)"><path
         d="m 3017.74,1274.38 c 0,-97.55 -79.08,-176.63 -176.62,-176.63 -97.55,0 -176.62,79.08 -176.62,176.63 0,97.54 79.07,176.62 176.62,176.62 97.54,0 176.62,-79.08 176.62,-176.62"
         style="fill:#31ac40;fill-opacity:1;fill-rule:nonzero;stroke:none"
         id="path14" /><path
         d="m 2612.31,1263.58 c 1.7,124.08 104.09,227.16 228.81,227.16 124.72,0 227.1,-103.07 228.8,-227.16 0.07,-4.75 0.17,4.06 0.18,4.49 0.08,5.7 0.02,11.4 -0.05,17.1 -1.72,125.3 -101.65,230.57 -228.93,230.57 -127.28,0 -227.22,-105.26 -228.93,-230.57 -0.08,-5.7 -0.14,-11.4 -0.05,-17.1 0.02,-1.16 0.11,-8.95 0.17,-4.49 v 0"
         style="fill:#231f20;fill-opacity:1;fill-rule:nonzero;stroke:none"
         id="path16" /><path
         d="m 2544.63,1265.54 c 1.42,122.53 81.07,234.29 196.46,275.62 113.52,40.66 243.65,6.75 323.08,-83.82 46.38,-52.89 72.62,-121.47 73.43,-191.8 0.11,-9.25 0.22,14.45 0.18,17.67 -1.43,123.29 -73.81,235.89 -190.42,280.64 -120.3,46.17 -260.22,7.19 -339.68,-94.05 -42.15,-53.71 -62.44,-118.77 -63.23,-186.59 -0.07,-5.87 -0.25,-11.8 0,-17.67 0.16,-3.61 0.13,-4.82 0.18,0 v 0"
         style="fill:#231f20;fill-opacity:1;fill-rule:nonzero;stroke:none"
         id="path18" /><path
         d="m 2456.89,1265.54 c 1.42,159.19 104.7,304.53 254.62,358.23 148.43,53.16 318.53,7.93 421.19,-111.54 58.8,-68.42 91.84,-156.5 92.64,-246.69 0.09,-9.25 0.2,14.45 0.18,17.67 -1.42,159.9 -97.42,306.25 -248.59,363.27 -155.24,58.56 -335.03,8.38 -437.7,-121.79 -54.6,-69.21 -81.73,-153.78 -82.51,-241.48 -0.05,-5.87 -0.26,-11.8 0,-17.67 0.15,-3.61 0.13,-4.82 0.17,0 v 0"
         style="fill:#231f20;fill-opacity:1;fill-rule:nonzero;stroke:none"
         id="path20" /><path
         d="m 1606.7,496.738 v 177.836 c 0,12.266 0.15,24.074 0.37,35.656 h -29.33 c 0.21,-11.574 0.35,-23.371 0.35,-35.656 V 557.059 l -83.83,153.171 h -354.22 l 217.29,-411.769 c 9.2,-17.359 13.3,-24.512 22.48,-24.512 18.4,0 69.51,67.442 200.33,111.391 64.37,21.461 123.65,12.262 123.65,38.84 0,22.48 -59.28,6.14 -97.09,72.558"
         style="fill:#56c035;fill-opacity:1;fill-rule:nonzero;stroke:none"
         id="path22" /><path
         d="m 1120.22,380.238 c -74.61,60.293 -94.03,154.321 -94.03,305.586 v 24.406 h -28.612 v -24.406 c 0,-150.234 -14.312,-247.344 -75.64,-304.574 -16.875,-15.719 -32.317,-24.238 -45.012,-29.789 -3.34,1.668 -6.766,3.719 -10.242,6.301 -27.579,20.429 -62.344,94.019 -108.321,219.718 l -48.234,132.75 h -301.25 l 34.699,-92.878 H 268.813 l 29.089,92.878 H 264.145 C 197.152,523.84 115.441,401.18 67.4648,365.922 26.5859,335.262 0.00390625,349.57 0.00390625,328.109 0.00390625,319.93 7.17188,314.832 19.418,314.832 h 332.168 c 12.266,0 18.398,5.098 18.398,13.277 0,20.45 -27.597,12.27 -58.261,35.762 -33.731,25.57 -55.176,79.731 -55.176,152.289 0,19.43 2.031,44.981 5.098,73.59 h 192.148 l 42.93,-130.82 c 6.132,-18.399 9.199,-34.75 9.199,-48.032 0,-34.757 -16.367,-50.078 -55.195,-62.339 -26.582,-8.18 -34.747,-6.129 -34.747,-20.45 0,-8.179 6.133,-13.277 18.399,-13.277 h 430.332 l 318.869,-1.043 c 16.36,0 22.5,3.07 22.5,14.32 0,18.403 -31.68,9.2 -85.86,52.129"
         style="fill:#56c035;fill-opacity:1;fill-rule:nonzero;stroke:none"
         id="path24" /><path
         d="m 2314.74,491.648 39.87,133.864 c 8.85,29.937 17.84,58.105 26.99,84.718 h -35.99 c -3.46,-14.074 -7.18,-28.535 -11.45,-43.82 L 2293.28,520.262 2228.26,710.23 H 1918.3 l 134.81,-414.82 c 6.13,-20.441 11.23,-30.66 18.4,-30.66 23.49,0 56.21,70.512 176.79,116.5 89.94,34.75 146.15,29.648 146.15,53.148 0,24.532 -54.16,0 -79.71,57.25"
         style="fill:#56c035;fill-opacity:1;fill-rule:nonzero;stroke:none"
         id="path26" /><path
         d="m 3021.6,351.629 c -28.61,11.23 -29.63,37.812 -29.63,90.949 V 710.23 H 2688.42 V 442.578 c 0,-53.137 -1.02,-79.719 -29.63,-90.949 -33.73,-13.309 -61.33,-2.059 -61.33,-22.5 0,-11.231 6.13,-14.297 22.48,-14.297 h 440.51 c 16.34,0 22.48,3.066 22.48,14.297 0,20.441 -27.6,9.191 -61.33,22.5"
         style="fill:#56c035;fill-opacity:1;fill-rule:nonzero;stroke:none"
         id="path28" /><path
         d="m 4522.18,710.23 h -658.33 c 30.81,-53.851 89.49,-92.421 178.49,-122.531 l 131.86,-44.961 c 71.54,-24.527 106.29,-55.199 106.29,-108.34 0,-63.359 -51.12,-109.359 -133.89,-109.359 -86.88,0 -175.8,60.301 -234.04,159.441 -39.87,68.469 -54.18,100.149 -69.52,100.149 -8.16,0 -11.23,-5.09 -11.23,-15.328 0,-1.012 0,-3.071 0,-6.129 0,-1.024 0,-3.07 0,-5.102 l 32.7,-290.25 c 2.05,-15.34 6.13,-21.468 18.4,-21.468 15.33,0 9.2,65.41 105.27,65.41 52.13,0 123.67,-20.453 210.55,-20.453 227.91,0 366.89,113.461 366.89,283.113 0,58.738 -14.64,101.656 -43.44,135.808"
         style="fill:#56c035;fill-opacity:1;fill-rule:nonzero;stroke:none"
         id="path30" /><path
         d="m 3795.72,584.629 c -15.33,0 -29.63,-31.68 -69.49,-100.149 -58.26,-99.14 -147.17,-159.441 -234.04,-159.441 -82.8,0 -133.89,46 -133.89,109.359 0,53.141 34.74,83.813 106.29,108.34 l 131.83,44.961 c 89.03,30.11 147.71,68.68 178.52,122.531 H 3116.6 c -28.82,-34.152 -43.46,-77.07 -43.46,-135.808 0,-169.652 139.01,-283.113 366.92,-283.113 86.87,0 158.41,20.453 210.54,20.453 96.06,0 89.92,-65.41 105.26,-65.41 12.26,0 16.36,6.128 18.4,21.468 l 32.71,290.25 c 0,2.032 0,4.078 0,5.102 0,3.058 0,5.117 0,6.129 0,10.238 -3.07,15.328 -11.25,15.328"
         style="fill:#56c035;fill-opacity:1;fill-rule:nonzero;stroke:none"
         id="path32" /><path
         d="m 564.164,1096.68 c -19.418,0 -65.41,-55.19 -200.312,-89.94 -85.86,-21.463 -112.422,-13.279 -112.422,-34.744 0,-20.449 39.863,-3.066 79.726,-66.445 L 272.895,734.887 c -2.872,-8.399 -5.821,-16.492 -8.75,-24.657 h 33.757 l 50.618,161.61 60.359,-161.61 h 301.25 l -46.824,128.895 c -65.41,179.885 -78.692,257.555 -99.141,257.555"
         style="fill:#31ac40;fill-opacity:1;fill-rule:nonzero;stroke:none"
         id="path34" /><path
         d="m 1353.24,994.477 c 0,22.483 13.29,29.633 13.29,36.793 0,12.27 -4.09,14.3 -18.4,14.3 H 913.773 c -16.347,0 -22.484,-3.07 -22.484,-14.3 0,-25.54 53.149,3.07 102.191,-67.457 3.067,-28.614 4.098,-60.293 4.098,-93.008 V 710.23 h 28.612 V 926 l 113.85,-215.77 h 354.22 l -117.52,214.754 c -17.36,31.68 -23.5,60.293 -23.5,69.493"
         style="fill:#31ac40;fill-opacity:1;fill-rule:nonzero;stroke:none"
         id="path36" /><path
         d="m 2224.81,1045.57 h -459.92 c -4.41,0 -7.74,-0.86 -10.56,-2.08 -3.55,1.35 -8.12,2.08 -14.76,2.08 h -297.42 c -16.35,0 -22.48,-3.07 -22.48,-14.3 0,-20.45 36.8,-9.2 81.78,-51.11 57.24,-53.48 73.93,-139.863 76.29,-269.93 h 29.33 c 2.67,138.958 22.52,229.219 88.56,280.165 27.45,21.265 47.73,24.625 58.27,29.755 9.7,-4.45 27.97,-3.57 48.8,-19.54 31.7,-24.532 53.14,-99.141 91.99,-217.696 l 23.61,-72.684 h 309.96 l -65.8,192.254 c -6.13,16.368 -9.2,31.7 -9.2,47.032 0,34.746 16.35,50.078 55.2,62.344 26.56,8.16 35.76,6.11 35.76,20.43 0,8.18 -7.15,13.28 -19.41,13.28"
         style="fill:#31ac40;fill-opacity:1;fill-rule:nonzero;stroke:none"
         id="path38" /><path
         d="m 3060.45,1045.57 h -440.51 c -3.02,0 -5.33,-0.24 -7.68,-0.48 -1.38,0.17 -2.59,0.48 -4.2,0.48 h -324.99 c -12.27,0 -18.4,-5.1 -18.4,-13.28 0,-21.47 28.61,-11.25 56.21,-33.731 30.66,-24.532 49.04,-70.508 49.04,-132.852 0,-35.469 -7.81,-88.594 -24.31,-155.477 h 35.99 c 43.61,126.922 90.99,216.004 146.74,265.848 37.11,33.062 67.9,36.292 84.6,41.712 11.26,-1.74 27.56,-1.79 45.85,-9 28.61,-11.247 29.63,-37.829 29.63,-90.974 V 710.23 h 303.55 v 207.586 c 0,53.145 1.02,79.727 29.63,90.974 33.73,13.28 61.33,2.03 61.33,22.48 0,11.23 -6.14,14.3 -22.48,14.3"
         style="fill:#31ac40;fill-opacity:1;fill-rule:nonzero;stroke:none"
         id="path40" /><path
         d="m 4345.9,811.527 -135.94,49.063 c -57.23,20.449 -85.84,47.012 -85.84,91.973 0,52.127 34.74,81.777 101.17,81.777 65.41,0 132.87,-30.66 192.15,-87.891 57.23,-56.23 66.42,-98.125 85.84,-98.125 5.12,0 11.25,4.082 11.25,12.266 0,3.066 -1.02,10.215 -2.05,20.449 l -29.63,206.441 c -3.07,23.5 -3.07,34.75 -17.38,34.75 -15.34,0 -15.34,-18.4 -25.55,-35.78 -14.32,-23.5 -42.93,-36.78 -83.81,-36.78 -60.29,0 -129.8,20.43 -207.48,20.43 -192.13,0 -310.68,-104.237 -310.68,-253.455 0,-41.161 8.61,-76.172 25.9,-106.415 h 658.33 c -36.36,43.106 -95.32,72.215 -176.28,101.297"
         style="fill:#31ac40;fill-opacity:1;fill-rule:nonzero;stroke:none"
         id="path42" /><path
         d="m 3490.13,1070.1 c -77.67,0 -147.16,-20.43 -207.48,-20.43 -40.86,0 -69.49,13.28 -83.79,36.78 -10.23,17.38 -10.23,35.78 -25.54,35.78 -14.32,0 -14.32,-11.25 -17.38,-34.75 l -29.65,-206.441 c -1.02,-10.234 -2.03,-17.383 -2.03,-20.449 0,-8.184 6.13,-12.266 11.23,-12.266 19.43,0 28.63,41.895 85.86,98.125 59.27,57.231 126.71,87.891 192.12,87.891 66.45,0 101.2,-29.65 101.2,-81.777 0,-44.961 -28.62,-71.524 -85.86,-91.973 L 3292.89,811.527 C 3211.92,782.445 3152.96,753.336 3116.6,710.23 h 658.34 c 17.29,30.243 25.9,65.254 25.9,106.415 0,149.218 -118.56,253.455 -310.71,253.455"
         style="fill:#31ac40;fill-opacity:1;fill-rule:nonzero;stroke:none"
         id="path44" /><path
         d="m 473.469,61.3711 h 23.906 V 48.1094 c 0,-18.4688 9.883,-27.3008 41.602,-27.3008 h 79.062 c 36.914,0 47.832,7.8008 47.832,34.8398 0,23.6602 -9.355,29.6407 -41.074,29.6407 h -48.359 c -77.754,0 -103.243,4.6797 -103.243,54.6019 0,42.898 25.489,52.519 78.008,52.519 h 54.883 c 63.164,0 79.023,-16.121 79.023,-49.66 v -6.5 h -23.906 c -0.527,29.898 -3.652,35.359 -70.469,35.359 h -27.031 c -49.14,0 -66.562,-2.597 -66.562,-33.539 0,-22.359 6.992,-29.898 46.797,-29.898 h 75.39 c 49.668,0 70.469,-14.3009 70.469,-46.2814 V 49.6602 C 689.797,3.37891 651.828,0 614.133,0 H 543.41 c -37.168,0 -69.941,6.51172 -69.941,47.5781 v 13.793"
         style="fill:#231f20;fill-opacity:1;fill-rule:nonzero;stroke:none"
         id="path46" /><path
         d="M 822.395,81.6484 714.484,190.34 h 34.336 l 86.309,-87.371 86.328,87.371 h 34.316 L 847.883,81.6484 V 2.07813 H 822.395 V 81.6484"
         style="fill:#231f20;fill-opacity:1;fill-rule:nonzero;stroke:none"
         id="path48" /><path
         d="m 980.734,61.3711 h 23.906 V 48.1094 c 0,-18.4688 9.88,-27.3008 41.6,-27.3008 h 79.05 c 36.93,0 47.83,7.8008 47.83,34.8398 0,23.6602 -9.34,29.6407 -41.06,29.6407 h -48.38 c -77.75,0 -103.219,4.6797 -103.219,54.6019 0,42.898 25.469,52.519 78.009,52.519 h 54.84 c 63.21,0 79.07,-16.121 79.07,-49.66 v -6.5 h -23.93 c -0.53,29.898 -3.65,35.359 -70.45,35.359 h -27.05 c -49.16,0 -66.56,-2.597 -66.56,-33.539 0,-22.359 7.01,-29.898 46.79,-29.898 h 75.41 c 49.65,0 70.47,-14.3009 70.47,-46.2814 V 49.6602 C 1197.06,3.37891 1159.09,0 1121.4,0 h -70.74 c -37.19,0 -69.926,6.51172 -69.926,47.5781 v 13.793"
         style="fill:#231f20;fill-opacity:1;fill-rule:nonzero;stroke:none"
         id="path50" /><path
         d="m 1316.63,169.539 h -95.15 v 20.801 h 215.82 v -20.801 h -95.16 V 2.07813 h -25.51 V 169.539"
         style="fill:#231f20;fill-opacity:1;fill-rule:nonzero;stroke:none"
         id="path52" /><path
         d="m 1466.67,190.34 h 184.85 v -20.801 h -159.38 v -60.07 h 153.15 V 88.6719 H 1492.14 V 22.8906 h 160.43 V 2.07813 h -185.9 V 190.34"
         style="fill:#231f20;fill-opacity:1;fill-rule:nonzero;stroke:none"
         id="path54" /><path
         d="m 1689.74,190.34 h 39.78 L 1839.5,32.5 1949.48,190.34 h 39.79 V 2.07813 h -25.49 V 167.449 h -0.51 L 1848.61,2.07813 H 1830.4 L 1715.73,167.449 h -0.5 V 2.07813 h -25.49 V 190.34"
         style="fill:#231f20;fill-opacity:1;fill-rule:nonzero;stroke:none"
         id="path56" /><path
         d="m 2038.39,190.34 h 25.49 V 2.07813 h -25.49 V 190.34"
         style="fill:#231f20;fill-opacity:1;fill-rule:nonzero;stroke:none"
         id="path58" /><path
         d="m 2100.54,21.8398 171.85,147.6992 h -166.4 v 20.801 h 206.46 V 172.129 L 2139.8,22.8906 h 176.28 V 2.07813 H 2100.54 V 21.8398"
         style="fill:#231f20;fill-opacity:1;fill-rule:nonzero;stroke:none"
         id="path60" /><path
         d="m 2351.94,190.34 h 184.88 v -20.801 h -159.39 v -60.07 h 153.14 V 88.6719 H 2377.43 V 22.8906 h 160.43 V 2.07813 H 2351.94 V 190.34"
         style="fill:#231f20;fill-opacity:1;fill-rule:nonzero;stroke:none"
         id="path62" /><path
         d="m 2697.23,61.3711 h 23.93 V 48.1094 c 0,-18.4688 9.88,-27.3008 41.6,-27.3008 h 79.02 c 36.94,0 47.86,7.8008 47.86,34.8398 0,23.6602 -9.36,29.6407 -41.1,29.6407 h -48.36 c -77.73,0 -103.2,4.6797 -103.2,54.6019 0,42.898 25.47,52.519 78.01,52.519 h 54.84 c 63.19,0 79.06,-16.121 79.06,-49.66 v -6.5 h -23.94 c -0.51,29.898 -3.63,35.359 -70.45,35.359 h -27.05 c -49.14,0 -66.56,-2.597 -66.56,-33.539 0,-22.359 7.03,-29.898 46.79,-29.898 h 75.41 c 49.67,0 70.47,-14.3009 70.47,-46.2814 V 49.6602 C 2913.56,3.37891 2875.61,0 2837.9,0 h -70.72 c -37.19,0 -69.95,6.51172 -69.95,47.5781 v 13.793"
         style="fill:#231f20;fill-opacity:1;fill-rule:nonzero;stroke:none"
         id="path64" /><path
         d="M 3046.16,81.6484 2938.25,190.34 h 34.32 l 86.32,-87.371 86.33,87.371 h 34.32 L 3071.63,81.6484 V 2.07813 h -25.47 V 81.6484"
         style="fill:#231f20;fill-opacity:1;fill-rule:nonzero;stroke:none"
         id="path66" /><path
         d="m 3204.48,61.3711 h 23.93 V 48.1094 c 0,-18.4688 9.88,-27.3008 41.6,-27.3008 h 79.04 c 36.91,0 47.85,7.8008 47.85,34.8398 0,23.6602 -9.37,29.6407 -41.09,29.6407 h -48.36 c -77.74,0 -103.22,4.6797 -103.22,54.6019 0,42.898 25.48,52.519 78,52.519 h 54.87 c 63.16,0 79.02,-16.121 79.02,-49.66 v -6.5 h -23.91 c -0.5,29.898 -3.63,35.359 -70.46,35.359 h -27.04 c -49.14,0 -66.56,-2.597 -66.56,-33.539 0,-22.359 7.03,-29.898 46.8,-29.898 h 75.39 c 49.69,0 70.47,-14.3009 70.47,-46.2814 V 49.6602 C 3420.81,3.37891 3382.84,0 3345.14,0 h -70.7 c -37.19,0 -69.96,6.51172 -69.96,47.5781 v 13.793"
         style="fill:#231f20;fill-opacity:1;fill-rule:nonzero;stroke:none"
         id="path68" /><path
         d="m 3540.42,169.539 h -95.16 v 20.801 h 215.78 v -20.801 h -95.15 V 2.07813 h -25.47 V 169.539"
         style="fill:#231f20;fill-opacity:1;fill-rule:nonzero;stroke:none"
         id="path70" /><path
         d="m 3690.42,190.34 h 184.88 v -20.801 h -159.39 v -60.07 h 153.14 V 88.6719 H 3715.91 V 22.8906 h 160.43 V 2.07813 H 3690.42 V 190.34"
         style="fill:#231f20;fill-opacity:1;fill-rule:nonzero;stroke:none"
         id="path72" /><path
         d="m 3913.5,190.34 h 39.79 l 109.98,-157.84 110,157.84 h 39.76 V 2.07813 h -25.46 V 167.449 h -0.53 L 4072.37,2.07813 h -18.2 L 3939.52,167.449 h -0.55 V 2.07813 H 3913.5 V 190.34"
         style="fill:#231f20;fill-opacity:1;fill-rule:nonzero;stroke:none"
         id="path74" /><path
         d="m 4256.71,61.3711 h 23.9 V 48.1094 c 0,-18.4688 9.89,-27.3008 41.6,-27.3008 h 79.07 c 36.91,0 47.83,7.8008 47.83,34.8398 0,23.6602 -9.36,29.6407 -41.08,29.6407 h -48.35 c -77.76,0 -103.25,4.6797 -103.25,54.6019 0,42.898 25.49,52.519 78.01,52.519 h 54.88 c 63.17,0 79.03,-16.121 79.03,-49.66 v -6.5 h -23.91 c -0.53,29.898 -3.65,35.359 -70.47,35.359 h -27.03 c -49.14,0 -66.56,-2.597 -66.56,-33.539 0,-22.359 6.99,-29.898 46.8,-29.898 h 75.39 c 49.66,0 70.46,-14.3009 70.46,-46.2814 V 49.6602 C 4473.03,3.37891 4435.07,0 4397.37,0 h -70.72 c -37.17,0 -69.94,6.51172 -69.94,47.5781 v 13.793"
         style="fill:#231f20;fill-opacity:1;fill-rule:nonzero;stroke:none"
         id="path76" /></g></g></svg>
